<mxfile host="app.diagrams.net" modified="2023-10-03T17:48:56.640Z" agent="Mozilla/5.0 (Macintosh; Intel Mac OS X 10_15_7) AppleWebKit/537.36 (KHTML, like Gecko) Chrome/116.0.0.0 Safari/537.36" etag="b3LhFpw_OQpXCMlg6VZ6" version="22.0.0" type="github">
  <diagram name="Page-1" id="OptNep50N4nJcta6pjEw">
    <mxGraphModel dx="1865" dy="1191" grid="1" gridSize="10" guides="1" tooltips="1" connect="1" arrows="1" fold="1" page="1" pageScale="1" pageWidth="850" pageHeight="1100" math="0" shadow="0">
      <root>
        <mxCell id="0" />
        <mxCell id="1" parent="0" />
        <mxCell id="JaoUqpHkBibLqqUjb6aJ-6" value="" style="swimlane;startSize=0;" parent="1" vertex="1">
          <mxGeometry x="60" y="220" width="510" height="450" as="geometry">
            <mxRectangle x="320" y="360" width="50" height="40" as="alternateBounds" />
          </mxGeometry>
        </mxCell>
        <mxCell id="JaoUqpHkBibLqqUjb6aJ-1" value="Joost" style="ellipse;whiteSpace=wrap;html=1;aspect=fixed;" parent="JaoUqpHkBibLqqUjb6aJ-6" vertex="1">
          <mxGeometry x="110" y="75" width="80" height="80" as="geometry" />
        </mxCell>
        <mxCell id="JaoUqpHkBibLqqUjb6aJ-3" value="Marco" style="ellipse;whiteSpace=wrap;html=1;aspect=fixed;" parent="JaoUqpHkBibLqqUjb6aJ-6" vertex="1">
          <mxGeometry x="110" y="190" width="80" height="80" as="geometry" />
        </mxCell>
        <mxCell id="JaoUqpHkBibLqqUjb6aJ-2" value="Vicky" style="ellipse;whiteSpace=wrap;html=1;aspect=fixed;" parent="JaoUqpHkBibLqqUjb6aJ-6" vertex="1">
          <mxGeometry x="110" y="310" width="80" height="80" as="geometry" />
        </mxCell>
        <mxCell id="JaoUqpHkBibLqqUjb6aJ-8" value="First experience, learned research was even a thing&amp;nbsp;" style="whiteSpace=wrap;html=1;aspect=fixed;" parent="JaoUqpHkBibLqqUjb6aJ-6" vertex="1">
          <mxGeometry x="290" y="70" width="80" height="80" as="geometry" />
        </mxCell>
        <mxCell id="JaoUqpHkBibLqqUjb6aJ-10" value="First exposure to Ml Research. Learning coud combine social science and data science" style="whiteSpace=wrap;html=1;aspect=fixed;" parent="JaoUqpHkBibLqqUjb6aJ-6" vertex="1">
          <mxGeometry x="290" y="182.5" width="95" height="95" as="geometry" />
        </mxCell>
        <mxCell id="JaoUqpHkBibLqqUjb6aJ-11" value="First chance working on method design on my own. Was quantitative person on projcet" style="whiteSpace=wrap;html=1;aspect=fixed;" parent="JaoUqpHkBibLqqUjb6aJ-6" vertex="1">
          <mxGeometry x="280" y="310" width="100" height="100" as="geometry" />
        </mxCell>
        <mxCell id="JaoUqpHkBibLqqUjb6aJ-12" value="" style="endArrow=classic;html=1;rounded=0;exitX=1;exitY=0.5;exitDx=0;exitDy=0;" parent="JaoUqpHkBibLqqUjb6aJ-6" source="JaoUqpHkBibLqqUjb6aJ-2" edge="1">
          <mxGeometry width="50" height="50" relative="1" as="geometry">
            <mxPoint x="490" y="260" as="sourcePoint" />
            <mxPoint x="280" y="350" as="targetPoint" />
          </mxGeometry>
        </mxCell>
        <mxCell id="JaoUqpHkBibLqqUjb6aJ-13" value="" style="endArrow=classic;html=1;rounded=0;exitX=1;exitY=0.5;exitDx=0;exitDy=0;entryX=0;entryY=0.5;entryDx=0;entryDy=0;" parent="JaoUqpHkBibLqqUjb6aJ-6" source="JaoUqpHkBibLqqUjb6aJ-3" target="JaoUqpHkBibLqqUjb6aJ-10" edge="1">
          <mxGeometry width="50" height="50" relative="1" as="geometry">
            <mxPoint x="490" y="260" as="sourcePoint" />
            <mxPoint x="540" y="210" as="targetPoint" />
          </mxGeometry>
        </mxCell>
        <mxCell id="JaoUqpHkBibLqqUjb6aJ-14" value="" style="endArrow=classic;html=1;rounded=0;exitX=1;exitY=0.5;exitDx=0;exitDy=0;entryX=-0.025;entryY=0.588;entryDx=0;entryDy=0;entryPerimeter=0;" parent="JaoUqpHkBibLqqUjb6aJ-6" source="JaoUqpHkBibLqqUjb6aJ-1" target="JaoUqpHkBibLqqUjb6aJ-8" edge="1">
          <mxGeometry width="50" height="50" relative="1" as="geometry">
            <mxPoint x="490" y="260" as="sourcePoint" />
            <mxPoint x="540" y="210" as="targetPoint" />
          </mxGeometry>
        </mxCell>
        <mxCell id="JaoUqpHkBibLqqUjb6aJ-27" value="Applied Social Science Reaserch" style="swimlane;whiteSpace=wrap;html=1;" parent="JaoUqpHkBibLqqUjb6aJ-6" vertex="1">
          <mxGeometry width="510" height="450" as="geometry" />
        </mxCell>
        <mxCell id="JaoUqpHkBibLqqUjb6aJ-15" value="Became interested in applied quantitative research&amp;nbsp;" style="whiteSpace=wrap;html=1;aspect=fixed;" parent="1" vertex="1">
          <mxGeometry x="740" y="370" width="150" height="150" as="geometry" />
        </mxCell>
        <mxCell id="JaoUqpHkBibLqqUjb6aJ-16" value="" style="endArrow=classic;html=1;rounded=0;exitX=1;exitY=0.5;exitDx=0;exitDy=0;" parent="1" source="JaoUqpHkBibLqqUjb6aJ-6" target="JaoUqpHkBibLqqUjb6aJ-15" edge="1">
          <mxGeometry width="50" height="50" relative="1" as="geometry">
            <mxPoint x="880" y="550" as="sourcePoint" />
            <mxPoint x="930" y="500" as="targetPoint" />
          </mxGeometry>
        </mxCell>
        <mxCell id="JaoUqpHkBibLqqUjb6aJ-17" value="Cirrone&amp;nbsp;" style="ellipse;whiteSpace=wrap;html=1;aspect=fixed;" parent="1" vertex="1">
          <mxGeometry x="1060" y="390" width="110" height="110" as="geometry" />
        </mxCell>
        <mxCell id="JaoUqpHkBibLqqUjb6aJ-18" value="" style="endArrow=classic;html=1;rounded=0;exitX=1;exitY=0.5;exitDx=0;exitDy=0;entryX=0;entryY=0.5;entryDx=0;entryDy=0;" parent="1" source="JaoUqpHkBibLqqUjb6aJ-15" target="JaoUqpHkBibLqqUjb6aJ-17" edge="1">
          <mxGeometry width="50" height="50" relative="1" as="geometry">
            <mxPoint x="880" y="550" as="sourcePoint" />
            <mxPoint x="930" y="500" as="targetPoint" />
          </mxGeometry>
        </mxCell>
        <mxCell id="JaoUqpHkBibLqqUjb6aJ-19" value="Became interested in using comp methods to answer biological questions" style="whiteSpace=wrap;html=1;aspect=fixed;" parent="1" vertex="1">
          <mxGeometry x="1330" y="377.5" width="135" height="135" as="geometry" />
        </mxCell>
        <mxCell id="JaoUqpHkBibLqqUjb6aJ-20" value="" style="endArrow=classic;html=1;rounded=0;exitX=1;exitY=0.5;exitDx=0;exitDy=0;entryX=0;entryY=0.5;entryDx=0;entryDy=0;" parent="1" source="JaoUqpHkBibLqqUjb6aJ-17" target="JaoUqpHkBibLqqUjb6aJ-19" edge="1">
          <mxGeometry width="50" height="50" relative="1" as="geometry">
            <mxPoint x="1070" y="550" as="sourcePoint" />
            <mxPoint x="1120" y="500" as="targetPoint" />
          </mxGeometry>
        </mxCell>
        <mxCell id="JaoUqpHkBibLqqUjb6aJ-28" value="Personal/class Projects" style="swimlane;whiteSpace=wrap;html=1;" parent="1" vertex="1">
          <mxGeometry x="1550" y="130" width="480" height="320" as="geometry" />
        </mxCell>
        <mxCell id="JaoUqpHkBibLqqUjb6aJ-25" value="Identifying Autism in Mice based on Signal Data" style="ellipse;whiteSpace=wrap;html=1;aspect=fixed;fillOpacity=100;" parent="JaoUqpHkBibLqqUjb6aJ-28" vertex="1">
          <mxGeometry x="90" y="190" width="110" height="110" as="geometry" />
        </mxCell>
        <mxCell id="JaoUqpHkBibLqqUjb6aJ-24" value="DNA String Matching Algorithms Project" style="ellipse;whiteSpace=wrap;html=1;aspect=fixed;" parent="JaoUqpHkBibLqqUjb6aJ-28" vertex="1">
          <mxGeometry x="90" y="50" width="110" height="110" as="geometry" />
        </mxCell>
        <mxCell id="JaoUqpHkBibLqqUjb6aJ-31" value="Exposure to Computational Genomics reaserch.&amp;nbsp;&lt;br&gt;Exposure to Computer Science algorithms and opimtization in comp bio" style="whiteSpace=wrap;html=1;aspect=fixed;" parent="JaoUqpHkBibLqqUjb6aJ-28" vertex="1">
          <mxGeometry x="280" y="50" width="125" height="125" as="geometry" />
        </mxCell>
        <mxCell id="JaoUqpHkBibLqqUjb6aJ-35" value="Exposure to working with massive quantities of data and more complex Machine learning algorithms&amp;nbsp;" style="whiteSpace=wrap;html=1;aspect=fixed;" parent="JaoUqpHkBibLqqUjb6aJ-28" vertex="1">
          <mxGeometry x="295" y="200" width="110" height="110" as="geometry" />
        </mxCell>
        <mxCell id="JaoUqpHkBibLqqUjb6aJ-45" value="" style="endArrow=classic;html=1;rounded=0;exitX=1;exitY=0.5;exitDx=0;exitDy=0;" parent="JaoUqpHkBibLqqUjb6aJ-28" source="JaoUqpHkBibLqqUjb6aJ-25" edge="1">
          <mxGeometry width="50" height="50" relative="1" as="geometry">
            <mxPoint x="-70" y="280" as="sourcePoint" />
            <mxPoint x="300" y="245" as="targetPoint" />
          </mxGeometry>
        </mxCell>
        <mxCell id="JaoUqpHkBibLqqUjb6aJ-46" value="" style="endArrow=classic;html=1;rounded=0;exitX=1;exitY=0.5;exitDx=0;exitDy=0;entryX=-0.02;entryY=0.411;entryDx=0;entryDy=0;entryPerimeter=0;" parent="JaoUqpHkBibLqqUjb6aJ-28" source="JaoUqpHkBibLqqUjb6aJ-24" target="JaoUqpHkBibLqqUjb6aJ-31" edge="1">
          <mxGeometry width="50" height="50" relative="1" as="geometry">
            <mxPoint x="-70" y="280" as="sourcePoint" />
            <mxPoint x="-20" y="230" as="targetPoint" />
          </mxGeometry>
        </mxCell>
        <mxCell id="JaoUqpHkBibLqqUjb6aJ-29" value="" style="endArrow=classic;html=1;rounded=0;exitX=1;exitY=0.5;exitDx=0;exitDy=0;" parent="1" source="JaoUqpHkBibLqqUjb6aJ-19" edge="1">
          <mxGeometry width="50" height="50" relative="1" as="geometry">
            <mxPoint x="1490" y="590" as="sourcePoint" />
            <mxPoint x="1550" y="445" as="targetPoint" />
          </mxGeometry>
        </mxCell>
        <mxCell id="JaoUqpHkBibLqqUjb6aJ-36" value="Short Term Research" style="swimlane;whiteSpace=wrap;html=1;" parent="1" vertex="1">
          <mxGeometry x="1550" y="450" width="480" height="140" as="geometry" />
        </mxCell>
        <mxCell id="JaoUqpHkBibLqqUjb6aJ-37" value="Cem" style="ellipse;whiteSpace=wrap;html=1;aspect=fixed;" parent="JaoUqpHkBibLqqUjb6aJ-36" vertex="1">
          <mxGeometry x="10" y="30" width="100" height="100" as="geometry" />
        </mxCell>
        <mxCell id="JaoUqpHkBibLqqUjb6aJ-41" value="Pro: Introduced me to CV, was work at langone, Cem is really nice.&amp;nbsp;&lt;br&gt;Con: Did not do that much, kind of bailed on him a bit&amp;nbsp;&amp;nbsp;" style="whiteSpace=wrap;html=1;aspect=fixed;" parent="JaoUqpHkBibLqqUjb6aJ-36" vertex="1">
          <mxGeometry x="290" y="30" width="110" height="110" as="geometry" />
        </mxCell>
        <mxCell id="JaoUqpHkBibLqqUjb6aJ-44" value="" style="endArrow=classic;html=1;rounded=0;exitX=1;exitY=0.5;exitDx=0;exitDy=0;entryX=-0.008;entryY=0.38;entryDx=0;entryDy=0;entryPerimeter=0;" parent="JaoUqpHkBibLqqUjb6aJ-36" source="JaoUqpHkBibLqqUjb6aJ-37" target="JaoUqpHkBibLqqUjb6aJ-41" edge="1">
          <mxGeometry width="50" height="50" relative="1" as="geometry">
            <mxPoint x="-70" y="-40" as="sourcePoint" />
            <mxPoint x="-20" y="-90" as="targetPoint" />
          </mxGeometry>
        </mxCell>
        <mxCell id="JaoUqpHkBibLqqUjb6aJ-47" value="Hochwagen" style="ellipse;whiteSpace=wrap;html=1;aspect=fixed;" parent="1" vertex="1">
          <mxGeometry x="2260" y="167.5" width="150" height="150" as="geometry" />
        </mxCell>
        <mxCell id="JaoUqpHkBibLqqUjb6aJ-48" value="" style="endArrow=classic;html=1;rounded=0;exitX=1;exitY=0.5;exitDx=0;exitDy=0;entryX=0;entryY=0.5;entryDx=0;entryDy=0;" parent="1" source="JaoUqpHkBibLqqUjb6aJ-31" target="JaoUqpHkBibLqqUjb6aJ-47" edge="1">
          <mxGeometry width="50" height="50" relative="1" as="geometry">
            <mxPoint x="1970" y="500" as="sourcePoint" />
            <mxPoint x="2020" y="450" as="targetPoint" />
          </mxGeometry>
        </mxCell>
        <mxCell id="JaoUqpHkBibLqqUjb6aJ-51" value="" style="endArrow=classic;html=1;rounded=0;exitX=1;exitY=0.5;exitDx=0;exitDy=0;entryX=0;entryY=0.5;entryDx=0;entryDy=0;" parent="1" source="JaoUqpHkBibLqqUjb6aJ-47" target="JaoUqpHkBibLqqUjb6aJ-63" edge="1">
          <mxGeometry width="50" height="50" relative="1" as="geometry">
            <mxPoint x="2240" y="500" as="sourcePoint" />
            <mxPoint x="2290" y="450" as="targetPoint" />
          </mxGeometry>
        </mxCell>
        <mxCell id="JaoUqpHkBibLqqUjb6aJ-52" value="Aurora" style="ellipse;whiteSpace=wrap;html=1;aspect=fixed;" parent="1" vertex="1">
          <mxGeometry x="2270" y="330" width="130" height="130" as="geometry" />
        </mxCell>
        <mxCell id="JaoUqpHkBibLqqUjb6aJ-53" value="" style="endArrow=classic;html=1;rounded=0;exitX=1;exitY=0.5;exitDx=0;exitDy=0;entryX=0;entryY=0.5;entryDx=0;entryDy=0;" parent="1" source="JaoUqpHkBibLqqUjb6aJ-35" target="JaoUqpHkBibLqqUjb6aJ-52" edge="1">
          <mxGeometry width="50" height="50" relative="1" as="geometry">
            <mxPoint x="2160" y="500" as="sourcePoint" />
            <mxPoint x="2210" y="450" as="targetPoint" />
          </mxGeometry>
        </mxCell>
        <mxCell id="JaoUqpHkBibLqqUjb6aJ-54" value="Pro: Got to work with real ML experts, got to do robotics, continued learning about advanced methods, made me a lot more proficient as a programmer, got to work with MIT, Darpa and was a machine learning engineer at a Boeing subsidiary&lt;br&gt;Con: Not in bio.&amp;nbsp;" style="whiteSpace=wrap;html=1;aspect=fixed;" parent="1" vertex="1">
          <mxGeometry x="2560" y="355" width="165" height="165" as="geometry" />
        </mxCell>
        <mxCell id="JaoUqpHkBibLqqUjb6aJ-55" value="" style="endArrow=classic;html=1;rounded=0;exitX=1;exitY=0.5;exitDx=0;exitDy=0;entryX=0;entryY=0.25;entryDx=0;entryDy=0;" parent="1" source="JaoUqpHkBibLqqUjb6aJ-52" target="JaoUqpHkBibLqqUjb6aJ-54" edge="1">
          <mxGeometry width="50" height="50" relative="1" as="geometry">
            <mxPoint x="2490" y="500" as="sourcePoint" />
            <mxPoint x="2540" y="450" as="targetPoint" />
          </mxGeometry>
        </mxCell>
        <mxCell id="JaoUqpHkBibLqqUjb6aJ-56" value="Current Work" style="swimlane;whiteSpace=wrap;html=1;" parent="1" vertex="1">
          <mxGeometry x="2850" y="210" width="550" height="730" as="geometry" />
        </mxCell>
        <mxCell id="JaoUqpHkBibLqqUjb6aJ-57" value="Robot Masters CV Team" style="ellipse;whiteSpace=wrap;html=1;aspect=fixed;" parent="JaoUqpHkBibLqqUjb6aJ-56" vertex="1">
          <mxGeometry x="60" y="357.5" width="100" height="100" as="geometry" />
        </mxCell>
        <mxCell id="JaoUqpHkBibLqqUjb6aJ-58" value="Pro: Continued investigating more advanced ml methods, More CV and Robotics stuff, did it outside of class/lab.&amp;nbsp;&lt;br&gt;Con: Not in Bio" style="whiteSpace=wrap;html=1;aspect=fixed;" parent="JaoUqpHkBibLqqUjb6aJ-56" vertex="1">
          <mxGeometry x="370" y="370" width="132.5" height="132.5" as="geometry" />
        </mxCell>
        <mxCell id="JaoUqpHkBibLqqUjb6aJ-59" value="" style="endArrow=classic;html=1;rounded=0;exitX=1;exitY=0.5;exitDx=0;exitDy=0;entryX=-0.024;entryY=0.914;entryDx=0;entryDy=0;entryPerimeter=0;" parent="JaoUqpHkBibLqqUjb6aJ-56" source="JaoUqpHkBibLqqUjb6aJ-57" target="JaoUqpHkBibLqqUjb6aJ-58" edge="1">
          <mxGeometry width="50" height="50" relative="1" as="geometry">
            <mxPoint x="-20" y="167.5" as="sourcePoint" />
            <mxPoint x="340" y="397.5" as="targetPoint" />
          </mxGeometry>
        </mxCell>
        <mxCell id="JaoUqpHkBibLqqUjb6aJ-63" value="Still in Hochwagen Lab" style="ellipse;whiteSpace=wrap;html=1;aspect=fixed;" parent="JaoUqpHkBibLqqUjb6aJ-56" vertex="1">
          <mxGeometry x="65" y="32.5" width="80" height="80" as="geometry" />
        </mxCell>
        <mxCell id="JaoUqpHkBibLqqUjb6aJ-50" value="First Time spending more time in a lab, got to dive more deeply into a question and continue genomics and disease association work&amp;nbsp;" style="whiteSpace=wrap;html=1;aspect=fixed;" parent="JaoUqpHkBibLqqUjb6aJ-56" vertex="1">
          <mxGeometry x="370" y="32.5" width="130" height="130" as="geometry" />
        </mxCell>
        <mxCell id="JaoUqpHkBibLqqUjb6aJ-65" value="" style="endArrow=classic;html=1;rounded=0;exitX=1;exitY=0.5;exitDx=0;exitDy=0;entryX=-0.038;entryY=0.384;entryDx=0;entryDy=0;entryPerimeter=0;" parent="JaoUqpHkBibLqqUjb6aJ-56" source="JaoUqpHkBibLqqUjb6aJ-63" target="JaoUqpHkBibLqqUjb6aJ-50" edge="1">
          <mxGeometry width="50" height="50" relative="1" as="geometry">
            <mxPoint x="-200" y="472.5" as="sourcePoint" />
            <mxPoint x="-150" y="422.5" as="targetPoint" />
          </mxGeometry>
        </mxCell>
        <mxCell id="JaoUqpHkBibLqqUjb6aJ-66" value="Capstone Project&amp;nbsp;" style="ellipse;whiteSpace=wrap;html=1;aspect=fixed;" parent="JaoUqpHkBibLqqUjb6aJ-56" vertex="1">
          <mxGeometry x="60" y="202.5" width="80" height="80" as="geometry" />
        </mxCell>
        <mxCell id="JaoUqpHkBibLqqUjb6aJ-69" value="Continuing on with deep learning methods. continuing with disease association Working at MSK, with Dr. Day.&amp;nbsp;" style="whiteSpace=wrap;html=1;aspect=fixed;" parent="JaoUqpHkBibLqqUjb6aJ-56" vertex="1">
          <mxGeometry x="380" y="230" width="120" height="120" as="geometry" />
        </mxCell>
        <mxCell id="JaoUqpHkBibLqqUjb6aJ-70" value="" style="endArrow=classic;html=1;rounded=0;exitX=1;exitY=0.5;exitDx=0;exitDy=0;entryX=-0.05;entryY=0.367;entryDx=0;entryDy=0;entryPerimeter=0;" parent="JaoUqpHkBibLqqUjb6aJ-56" source="JaoUqpHkBibLqqUjb6aJ-66" target="JaoUqpHkBibLqqUjb6aJ-69" edge="1">
          <mxGeometry width="50" height="50" relative="1" as="geometry">
            <mxPoint x="40" y="430" as="sourcePoint" />
            <mxPoint x="90" y="380" as="targetPoint" />
          </mxGeometry>
        </mxCell>
        <mxCell id="JaoUqpHkBibLqqUjb6aJ-72" value="Machine Learning for healthcare and deep learning projects" style="ellipse;whiteSpace=wrap;html=1;aspect=fixed;" parent="JaoUqpHkBibLqqUjb6aJ-56" vertex="1">
          <mxGeometry x="65" y="540" width="100" height="100" as="geometry" />
        </mxCell>
        <mxCell id="JaoUqpHkBibLqqUjb6aJ-74" value="Both Classes let us chose our own projects so i will make them relevant, have not found topics quite yet though.&amp;nbsp;" style="whiteSpace=wrap;html=1;aspect=fixed;" parent="JaoUqpHkBibLqqUjb6aJ-56" vertex="1">
          <mxGeometry x="380" y="540" width="120" height="120" as="geometry" />
        </mxCell>
        <mxCell id="JaoUqpHkBibLqqUjb6aJ-75" value="" style="endArrow=classic;html=1;rounded=0;exitX=1;exitY=0.5;exitDx=0;exitDy=0;entryX=0;entryY=0.5;entryDx=0;entryDy=0;" parent="JaoUqpHkBibLqqUjb6aJ-56" source="JaoUqpHkBibLqqUjb6aJ-72" target="JaoUqpHkBibLqqUjb6aJ-74" edge="1">
          <mxGeometry width="50" height="50" relative="1" as="geometry">
            <mxPoint x="-60" y="540" as="sourcePoint" />
            <mxPoint x="-10" y="490" as="targetPoint" />
          </mxGeometry>
        </mxCell>
        <mxCell id="JaoUqpHkBibLqqUjb6aJ-60" value="" style="endArrow=classic;html=1;rounded=0;exitX=1.003;exitY=0.371;exitDx=0;exitDy=0;exitPerimeter=0;entryX=-0.031;entryY=0.311;entryDx=0;entryDy=0;entryPerimeter=0;" parent="1" source="JaoUqpHkBibLqqUjb6aJ-54" target="JaoUqpHkBibLqqUjb6aJ-57" edge="1">
          <mxGeometry width="50" height="50" relative="1" as="geometry">
            <mxPoint x="2740" y="580" as="sourcePoint" />
            <mxPoint x="2790" y="530" as="targetPoint" />
          </mxGeometry>
        </mxCell>
        <mxCell id="JaoUqpHkBibLqqUjb6aJ-61" value="" style="endArrow=classic;html=1;rounded=0;exitX=1;exitY=0.5;exitDx=0;exitDy=0;entryX=0;entryY=0.5;entryDx=0;entryDy=0;" parent="1" source="JaoUqpHkBibLqqUjb6aJ-41" target="JaoUqpHkBibLqqUjb6aJ-52" edge="1">
          <mxGeometry width="50" height="50" relative="1" as="geometry">
            <mxPoint x="2060" y="670" as="sourcePoint" />
            <mxPoint x="2110" y="620" as="targetPoint" />
          </mxGeometry>
        </mxCell>
        <mxCell id="JaoUqpHkBibLqqUjb6aJ-62" value="" style="endArrow=classic;html=1;rounded=0;exitX=1;exitY=0.25;exitDx=0;exitDy=0;entryX=-0.027;entryY=0.626;entryDx=0;entryDy=0;entryPerimeter=0;" parent="1" source="JaoUqpHkBibLqqUjb6aJ-41" target="JaoUqpHkBibLqqUjb6aJ-47" edge="1">
          <mxGeometry width="50" height="50" relative="1" as="geometry">
            <mxPoint x="2060" y="670" as="sourcePoint" />
            <mxPoint x="2090" y="530" as="targetPoint" />
          </mxGeometry>
        </mxCell>
        <mxCell id="JaoUqpHkBibLqqUjb6aJ-64" value="" style="endArrow=classic;html=1;rounded=0;exitX=1;exitY=0.25;exitDx=0;exitDy=0;entryX=0.014;entryY=0.215;entryDx=0;entryDy=0;entryPerimeter=0;" parent="1" source="JaoUqpHkBibLqqUjb6aJ-54" target="JaoUqpHkBibLqqUjb6aJ-66" edge="1">
          <mxGeometry width="50" height="50" relative="1" as="geometry">
            <mxPoint x="2670" y="640" as="sourcePoint" />
            <mxPoint x="2720" y="590" as="targetPoint" />
          </mxGeometry>
        </mxCell>
        <mxCell id="JaoUqpHkBibLqqUjb6aJ-71" value="" style="endArrow=classic;html=1;rounded=0;exitX=1;exitY=0.5;exitDx=0;exitDy=0;entryX=0;entryY=0;entryDx=0;entryDy=0;" parent="1" source="JaoUqpHkBibLqqUjb6aJ-47" target="JaoUqpHkBibLqqUjb6aJ-66" edge="1">
          <mxGeometry width="50" height="50" relative="1" as="geometry">
            <mxPoint x="2610" y="590" as="sourcePoint" />
            <mxPoint x="2660" y="540" as="targetPoint" />
          </mxGeometry>
        </mxCell>
        <mxCell id="P7xZSsLNg7L9i4siEiXK-1" value="Letters of Recommendation" style="ellipse;whiteSpace=wrap;html=1;aspect=fixed;fillColor=#f8cecc;strokeColor=#b85450;" parent="1" vertex="1">
          <mxGeometry x="2250" y="890" width="110" height="110" as="geometry" />
        </mxCell>
        <mxCell id="P7xZSsLNg7L9i4siEiXK-2" value="" style="endArrow=classic;html=1;rounded=0;exitX=1;exitY=0.5;exitDx=0;exitDy=0;entryX=0;entryY=0.5;entryDx=0;entryDy=0;" parent="1" source="JaoUqpHkBibLqqUjb6aJ-17" target="P7xZSsLNg7L9i4siEiXK-1" edge="1">
          <mxGeometry width="50" height="50" relative="1" as="geometry">
            <mxPoint x="1810" y="790" as="sourcePoint" />
            <mxPoint x="1860" y="740" as="targetPoint" />
          </mxGeometry>
        </mxCell>
        <mxCell id="P7xZSsLNg7L9i4siEiXK-3" value="" style="endArrow=classic;html=1;rounded=0;exitX=0.5;exitY=1;exitDx=0;exitDy=0;entryX=0.697;entryY=0.011;entryDx=0;entryDy=0;entryPerimeter=0;" parent="1" source="JaoUqpHkBibLqqUjb6aJ-52" target="P7xZSsLNg7L9i4siEiXK-1" edge="1">
          <mxGeometry width="50" height="50" relative="1" as="geometry">
            <mxPoint x="2310" y="470" as="sourcePoint" />
            <mxPoint x="2420" y="740" as="targetPoint" />
          </mxGeometry>
        </mxCell>
        <mxCell id="P7xZSsLNg7L9i4siEiXK-4" value="" style="endArrow=classic;html=1;rounded=0;exitX=0;exitY=1;exitDx=0;exitDy=0;entryX=1.06;entryY=0.361;entryDx=0;entryDy=0;entryPerimeter=0;" parent="1" source="JaoUqpHkBibLqqUjb6aJ-63" target="P7xZSsLNg7L9i4siEiXK-1" edge="1">
          <mxGeometry width="50" height="50" relative="1" as="geometry">
            <mxPoint x="2440" y="790" as="sourcePoint" />
            <mxPoint x="2490" y="740" as="targetPoint" />
          </mxGeometry>
        </mxCell>
        <mxCell id="bYP0GN23V7HIeH0-cy0Z-2" value="Potential Future Work" style="swimlane;whiteSpace=wrap;html=1;" vertex="1" parent="1">
          <mxGeometry x="3610" y="220" width="510" height="670" as="geometry" />
        </mxCell>
        <mxCell id="bYP0GN23V7HIeH0-cy0Z-3" value="Given all that info what connections can be made to potential future work, with researches at each place." style="ellipse;whiteSpace=wrap;html=1;aspect=fixed;" vertex="1" parent="bYP0GN23V7HIeH0-cy0Z-2">
          <mxGeometry x="100" y="102.5" width="257.5" height="257.5" as="geometry" />
        </mxCell>
      </root>
    </mxGraphModel>
  </diagram>
</mxfile>
